<svg xmlns="http://www.w3.org/2000/svg" viewBox="0 0 395.52 247.2" height="247.2" width="395.52"><g><svg/></g><g><svg viewBox="0 0 395.52 247.2" height="247.2" width="395.52"><g transform="matrix(1,0,0,1,75.54432,52.415075093419986)"><svg viewBox="0 0 244.43135999999998 142.36984981316002" height="142.36984981316002" width="244.43135999999998"><g><svg viewBox="0 0 244.43135999999998 142.36984981316002" height="142.36984981316002" width="244.43135999999998"><g><svg viewBox="0 0 244.43135999999998 142.36984981316002" height="142.36984981316002" width="244.43135999999998"><g><svg viewBox="0 0 244.43135999999998 142.36984981316002" height="142.36984981316002" width="244.43135999999998"><g id="textblocktransform"><svg viewBox="0 0 244.43135999999998 142.36984981316002" height="142.36984981316002" width="244.43135999999998" id="textblock"><g><svg viewBox="0 0 244.43135999999998 142.36984981316002" height="142.36984981316002" width="244.43135999999998"><g transform="matrix(1,0,0,1,0,0)"><svg width="244.43135999999998" viewBox="3.25 -35.01 60.1 35.01" height="142.36984981316002" data-palette-color="#2a2c35"><path d="M17.26-28L10.25-28 10.25-13.99 17.26-13.99Q18.7-13.99 19.97-14.54 21.24-15.09 22.19-16.04 23.14-16.99 23.69-18.27 24.24-19.56 24.24-21L24.24-21Q24.24-22.44 23.69-23.72 23.14-25 22.19-25.95 21.24-26.9 19.97-27.45 18.7-28 17.26-28L17.26-28ZM10.25-7.01L10.25 0 3.25 0 3.25-35.01 17.26-35.01Q19.19-35.01 20.97-34.51 22.75-34.01 24.3-33.09 25.85-32.18 27.14-30.9 28.42-29.61 29.33-28.05 30.25-26.49 30.75-24.71 31.25-22.92 31.25-21L31.25-21Q31.25-18.12 30.15-15.56 29.05-13.01 27.15-11.11 25.24-9.2 22.69-8.11 20.14-7.01 17.26-7.01L17.26-7.01 10.25-7.01ZM42.36-7.01L42.36 0 35.35 0 35.35-35.01 42.36-35.01 42.36-17.5 55.39-35.01 63.35-35.01 52.29-20.24 63.35 0 55.39 0 47.7-14.16 42.36-7.01Z" opacity="1" transform="matrix(1,0,0,1,0,0)" fill="#ffffff" class="wordmark-text-0" data-fill-palette-color="primary" id="text-0"/></svg></g></svg></g></svg></g></svg></g></svg></g></svg></g></svg></g><path d="M252.82 46.415L252.82 2.549 10.718 2.549 10.718 244.651 252.82 244.651 252.82 200.785 239.981 200.785 239.981 231.812 23.557 231.812 23.557 15.388 239.981 15.388 239.981 46.415Z" fill="#ffffff" stroke="transparent" data-fill-palette-color="tertiary"/></svg></g><defs/></svg>